# Blender 4.2.2 LTS
# www.blender.org
mtllib muro.mtl
o Room
v 0.000000 2.400000 0.000000
v 0.000000 0.000000 0.000000
v 5.000000 2.400000 0.000000
v 5.000000 0.000000 0.000000
v 10.000000 0.000000 0.000000
v 10.000000 2.400000 0.000000
vn -0.0000 -0.0000 1.0000
vn -0.0000 -0.0000 -1.0000
vt 0.000040 0.000040
vt 0.120030 0.000040
vt 0.120031 0.250020
vt 0.000040 0.250020
vt 0.120031 0.500000
vt 0.000040 0.500000
vt 0.000040 0.999960
vt 0.120031 0.999960
s 0
f 1/1/1 2/2/1 4/3/1 3/4/1
f 3/4/1 4/3/1 5/5/1 6/6/1
f 1/7/2 6/6/2 5/5/2 2/8/2
o Baseboard
v 0.000000 0.120000 0.000000
v 0.000000 0.000000 0.000000
v 10.000000 0.120000 0.000000
v 10.000000 0.000000 0.000000
v 0.000000 0.120000 -0.015000
v 0.000000 0.000000 -0.015000
v 10.000000 0.120000 -0.015000
v 10.000000 0.000000 -0.015000
vn -0.0000 -0.0000 1.0000
vn -0.0000 -0.0000 -1.0000
vn -0.0000 1.0000 -0.0000
vn -1.0000 -0.0000 -0.0000
vn -0.0000 -1.0000 -0.0000
vn 1.0000 -0.0000 -0.0000
vt 0.120111 0.000040
vt 0.126110 0.000040
vt 0.126110 0.500000
vt 0.120111 0.500000
s 0
f 7/9/3 8/10/3 10/11/3 9/12/3
f 11/9/4 13/12/4 14/11/4 12/10/4
f 7/9/5 9/12/5 13/12/5 11/9/5
f 8/10/6 7/9/6 11/9/6 12/10/6
f 10/11/7 8/10/7 12/10/7 14/11/7
f 9/12/8 10/11/8 14/11/8 13/12/8
o Wall_cover
v 0.000000 0.000000 0.000000
v 5.000000 0.000000 0.005000
v 5.000000 0.000000 0.030000
v 0.000000 0.200000 0.000000
v 5.000000 0.200000 0.005000
v 5.000000 0.200000 0.030000
v 0.000000 0.400000 0.000000
v 5.000000 0.400000 0.005000
v 5.000000 0.400000 0.030000
v 0.000000 0.600000 0.000000
v 5.000000 0.600000 0.030000
v 0.000000 0.800000 0.000000
v 5.000000 0.800000 0.005000
v 5.000000 0.800000 0.030000
v 5.000000 1.000000 0.005000
v 5.000000 1.000000 0.030000
v 0.000000 1.200000 0.000000
v 5.000000 1.200000 0.005000
v 5.000000 1.400000 0.005000
v 5.000000 1.400000 0.030000
v 0.000000 1.600000 0.000000
v 5.000000 1.600000 0.005000
v 5.000000 1.600000 0.030000
v 0.000000 1.800000 0.000000
v 5.000000 1.800000 0.005000
v 5.000000 2.200000 0.030000
v 10.000000 0.000000 0.000000
v 10.000000 0.400000 0.000000
v 5.000000 0.600000 0.005000
v 10.000000 0.600000 0.000000
v 5.000000 1.200000 0.030000
v 10.000000 1.600000 0.000000
v 5.000000 1.800000 0.030000
v 10.000000 1.800000 0.000000
v 5.000000 2.000000 0.005000
v 5.000000 2.000000 0.030000
v 5.000000 2.200000 0.005000
v 5.000000 2.400000 0.005000
v 5.000000 2.400000 0.030000
v 10.000000 0.200000 0.000000
v 10.000000 0.800000 0.000000
v 10.000000 1.000000 0.000000
v 0.000000 1.000000 0.000000
v 10.000000 1.200000 0.000000
v 10.000000 1.400000 0.000000
v 0.000000 1.400000 0.000000
v 10.000000 2.000000 0.000000
v 0.000000 2.000000 0.000000
v 10.000000 2.200000 0.000000
v 0.000000 2.200000 0.000000
v 0.000000 2.400000 0.000000
v 10.000000 2.400000 0.000000
vn -0.0000 -1.0000 -0.0000
vn -0.0035 0.0624 0.9980
vn 0.0035 0.0624 0.9980
vn -0.0000 -0.0000 -1.0000
s 0
f 15//9 16//9 17//9
f 18//9 19//9 20//9
f 15//10 17//10 19//10 18//10
f 21//9 22//9 23//9
f 18//10 20//10 22//10 21//10
f 24//9 43//9 25//9
f 21//10 23//10 43//10 24//10
f 26//9 27//9 28//9
f 24//10 25//10 27//10 26//10
f 57//9 29//9 30//9
f 26//10 28//10 29//10 57//10
f 31//9 32//9 45//9
f 57//10 30//10 32//10 31//10
f 60//9 33//9 34//9
f 31//10 45//10 33//10 60//10
f 35//9 36//9 37//9
f 60//10 34//10 36//10 35//10
f 38//9 39//9 47//9
f 35//10 37//10 39//10 38//10
f 62//9 49//9 50//9
f 38//10 47//10 49//10 62//10
f 64//9 51//9 40//9
f 62//10 50//10 51//10 64//10
f 65//9 52//9 53//9
f 64//10 40//10 52//10 65//10
f 16//9 41//9 17//9
f 19//9 54//9 20//9
f 17//11 41//11 54//11 19//11
f 22//9 42//9 23//9
f 20//11 54//11 42//11 22//11
f 43//9 44//9 25//9
f 23//11 42//11 44//11 43//11
f 27//9 55//9 28//9
f 25//11 44//11 55//11 27//11
f 29//9 56//9 30//9
f 28//11 55//11 56//11 29//11
f 32//9 58//9 45//9
f 30//11 56//11 58//11 32//11
f 33//9 59//9 34//9
f 45//11 58//11 59//11 33//11
f 36//9 46//9 37//9
f 34//11 59//11 46//11 36//11
f 39//9 48//9 47//9
f 37//11 46//11 48//11 39//11
f 49//9 61//9 50//9
f 47//11 48//11 61//11 49//11
f 51//9 63//9 40//9
f 50//11 61//11 63//11 51//11
f 52//9 66//9 53//9
f 40//11 63//11 66//11 52//11
f 41//12 15//12 18//12 54//12
f 54//12 18//12 21//12 42//12
f 42//12 21//12 24//12 44//12
f 44//12 24//12 26//12 55//12
f 55//12 26//12 57//12 56//12
f 56//12 57//12 31//12 58//12
f 58//12 31//12 60//12 59//12
f 59//12 60//12 35//12 46//12
f 46//12 35//12 38//12 48//12
f 48//12 38//12 62//12 61//12
f 61//12 62//12 64//12 63//12
f 63//12 64//12 65//12 66//12
