# Blender 4.2.2 LTS
# www.blender.org
mtllib stanza.mtl
o Room
v 0.000000 2.400000 0.000000
v 0.000000 0.000000 0.000000
v 5.000000 2.400000 0.000000
v 5.000000 0.000000 0.000000
v 10.000000 0.000000 0.000000
v 10.000000 2.400000 0.000000
v 10.000000 2.400000 5.000000
v 10.000000 0.000000 5.000000
v 10.000000 0.000000 10.000000
v 10.000000 2.400000 10.000000
v 5.000000 2.400000 10.000000
v 5.000000 0.000000 10.000000
v 0.000000 0.000000 10.000000
v 0.000000 2.400000 10.000000
v 0.000000 2.400000 5.000000
v 0.000000 0.000000 5.000000
vn -0.0000 -0.0000 -1.0000
vn 1.0000 -0.0000 -0.0000
vn -0.0000 -0.0000 1.0000
vn -1.0000 -0.0000 -0.0000
vt 0.000025 0.999975
vt 0.000025 0.874982
vt 0.060022 0.874982
vt 0.060022 0.999975
vt 0.000025 0.749988
vt 0.060022 0.749988
vt 0.000025 0.624994
vt 0.060022 0.624994
vt 0.000025 0.500000
vt 0.060022 0.500000
vt 0.000025 0.375006
vt 0.060022 0.375006
vt 0.000025 0.250012
vt 0.060022 0.250012
vt 0.000025 0.125018
vt 0.060022 0.125018
vt 0.000025 0.000024
vt 0.060022 0.000024
s 0
f 1/1/1 3/2/1 4/3/1 2/4/1
f 3/2/1 6/5/1 5/6/1 4/3/1
f 5/6/2 6/5/2 7/7/2 8/8/2
f 7/7/2 10/9/2 9/10/2 8/8/2
f 9/10/3 10/9/3 11/11/3 12/12/3
f 11/11/3 14/13/3 13/14/3 12/12/3
f 13/14/4 14/13/4 15/15/4 16/16/4
f 15/15/4 1/17/4 2/18/4 16/16/4
o Baseboard
v 0.000000 0.120000 0.000000
v 0.000000 0.000000 0.000000
v 10.000000 0.120000 0.000000
v 10.000000 0.000000 0.000000
v 10.000000 0.120000 10.000000
v 10.000000 0.000000 10.000000
v 0.000000 0.120000 10.000000
v 0.000000 0.000000 10.000000
v 0.000000 0.120000 0.000000
v 0.000000 0.000000 0.000000
v 10.000000 0.120000 0.000000
v 10.000000 0.000000 0.000000
v 10.000000 0.120000 10.000000
v 10.000000 0.000000 10.000000
v 0.000000 0.120000 10.000000
v 0.000000 0.000000 10.000000
l 17 18
l 25 26
o Wall_cover
v 5.000000 0.000000 -0.005000
v -0.003536 0.000000 -0.003536
v -0.003536 0.200000 -0.003536
v -0.021213 0.200000 -0.021213
v 5.000000 0.400000 -0.005000
v -0.003536 0.400000 -0.003536
v -0.003536 0.600000 -0.003536
v -0.021213 0.600000 -0.021213
v 5.000000 1.400000 -0.005000
v -0.003536 1.400000 -0.003536
v 5.000000 1.600000 -0.005000
v -0.021213 1.600000 -0.021213
v 5.000000 1.800000 -0.005000
v 5.000000 1.800000 -0.030000
v -0.021213 1.800000 -0.021213
v 5.000000 2.000000 -0.005000
v 5.000000 2.000000 -0.030000
v 5.000000 2.200000 -0.005000
v 5.000000 2.400000 -0.005000
v 5.000000 2.400000 -0.030000
v 5.000000 0.000000 -0.030000
v 10.021214 0.200000 -0.021213
v 5.000000 0.200000 -0.005000
v 5.000000 0.200000 -0.030000
v 10.021214 0.400000 -0.021213
v 5.000000 0.400000 -0.030000
v 10.003535 0.600000 -0.003536
v 5.000000 0.600000 -0.005000
v 5.000000 0.600000 -0.030000
v 10.021214 0.800000 -0.021213
v 5.000000 0.800000 -0.005000
v 5.000000 0.800000 -0.030000
v 10.003535 1.000000 -0.003536
v 5.000000 1.000000 -0.005000
v 5.000000 1.000000 -0.030000
v 10.003535 1.200000 -0.003536
v 10.021214 1.200000 -0.021213
v 5.000000 1.200000 -0.005000
v 5.000000 1.200000 -0.030000
v 5.000000 1.400000 -0.030000
v 10.003535 1.600000 -0.003536
v 5.000000 1.600000 -0.030000
v 10.003535 1.800000 -0.003536
v 10.021214 2.000000 -0.021213
v 10.003535 2.200000 -0.003536
v 5.000000 2.200000 -0.030000
v 10.003535 2.400000 -0.003536
v 10.003535 0.000000 -0.003536
v 10.021214 0.000000 -0.021213
v 10.005000 0.000000 5.000000
v 10.003535 0.200000 -0.003536
v 10.005000 0.200000 5.000000
v 10.003535 0.400000 -0.003536
v 10.030000 0.400000 5.000000
v 10.021214 0.600000 -0.021213
v 10.005000 0.600000 5.000000
v 10.030000 0.600000 5.000000
v 10.003535 0.800000 -0.003536
v 10.021214 1.000000 -0.021213
v 10.030000 1.200000 5.000000
v 10.003535 1.400000 -0.003536
v 10.021214 1.400000 -0.021213
v 10.005000 1.400000 5.000000
v 10.021214 1.600000 -0.021213
v 10.021214 1.800000 -0.021213
v 10.030000 1.800000 5.000000
v 10.003535 2.000000 -0.003536
v 10.005000 2.000000 5.000000
v 10.030000 2.000000 5.000000
v 10.021214 2.200000 -0.021213
v 10.005000 2.200000 5.000000
v 10.021214 2.400000 -0.021213
v 10.005000 2.400000 5.000000
v 10.003535 0.000000 10.003535
v 10.030000 0.000000 5.000000
v 10.030000 0.200000 5.000000
v 10.005000 0.400000 5.000000
v 10.003535 0.600000 10.003535
v 10.021214 0.800000 10.021214
v 10.005000 0.800000 5.000000
v 10.030000 0.800000 5.000000
v 10.005000 1.000000 5.000000
v 10.030000 1.000000 5.000000
v 10.003535 1.200000 10.003535
v 10.005000 1.200000 5.000000
v 10.003535 1.400000 10.003535
v 10.021214 1.400000 10.021214
v 10.030000 1.400000 5.000000
v 10.003535 1.600000 10.003535
v 10.021214 1.600000 10.021214
v 10.005000 1.600000 5.000000
v 10.030000 1.600000 5.000000
v 10.003535 1.800000 10.003535
v 10.005000 1.800000 5.000000
v 10.021214 2.000000 10.021214
v 10.003535 2.200000 10.003535
v 10.021214 2.200000 10.021214
v 10.030000 2.200000 5.000000
v 10.021214 2.400000 10.021214
v 10.030000 2.400000 5.000000
v 10.021214 0.000000 10.021214
v 5.000000 0.000000 10.005000
v 5.000000 0.000000 10.030000
v 10.003535 0.200000 10.003535
v 10.021214 0.200000 10.021214
v 5.000000 0.200000 10.005000
v 10.003535 0.400000 10.003535
v 10.021214 0.400000 10.021214
v 5.000000 0.400000 10.005000
v 10.021214 0.600000 10.021214
v 5.000000 0.600000 10.030000
v 10.003535 0.800000 10.003535
v 5.000000 0.800000 10.030000
v 10.003535 1.000000 10.003535
v 10.021214 1.000000 10.021214
v 5.000000 1.000000 10.030000
v 10.021214 1.200000 10.021214
v 5.000000 1.200000 10.030000
v 5.000000 1.400000 10.005000
v 5.000000 1.400000 10.030000
v 5.000000 1.600000 10.005000
v 5.000000 1.600000 10.030000
v 10.021214 1.800000 10.021214
v 5.000000 1.800000 10.005000
v 5.000000 1.800000 10.030000
v 10.003535 2.000000 10.003535
v 5.000000 2.000000 10.005000
v 5.000000 2.000000 10.030000
v 5.000000 2.200000 10.005000
v 5.000000 2.200000 10.030000
v 10.003535 2.400000 10.003535
v 5.000000 2.400000 10.005000
v 5.000000 2.400000 10.030000
v -0.003536 0.000000 10.003535
v -0.021213 0.000000 10.021214
v -0.003536 0.200000 10.003535
v 5.000000 0.200000 10.030000
v -0.021213 0.400000 10.021214
v 5.000000 0.400000 10.030000
v -0.003536 0.600000 10.003535
v -0.021213 0.600000 10.021214
v 5.000000 0.600000 10.005000
v -0.003536 0.800000 10.003535
v 5.000000 0.800000 10.005000
v 5.000000 1.000000 10.005000
v -0.021213 1.200000 10.021214
v 5.000000 1.200000 10.005000
v -0.003536 1.400000 10.003535
v -0.021213 1.400000 10.021214
v -0.003536 1.600000 10.003535
v -0.021213 1.600000 10.021214
v -0.003536 1.800000 10.003535
v -0.021213 1.800000 10.021214
v -0.021213 2.200000 10.021214
v -0.021213 2.400000 10.021214
v -0.003536 2.400000 10.003535
v -0.005000 0.000000 5.000000
v -0.030000 0.000000 5.000000
v -0.021213 0.200000 10.021214
v -0.005000 0.200000 5.000000
v -0.030000 0.200000 5.000000
v -0.003536 0.400000 10.003535
v -0.030000 0.400000 5.000000
v -0.030000 0.600000 5.000000
v -0.021213 0.800000 10.021214
v -0.003536 1.000000 10.003535
v -0.021213 1.000000 10.021214
v -0.005000 1.000000 5.000000
v -0.030000 1.000000 5.000000
v -0.003536 1.200000 10.003535
v -0.005000 1.200000 5.000000
v -0.005000 1.600000 5.000000
v -0.005000 1.800000 5.000000
v -0.030000 1.800000 5.000000
v -0.003536 2.000000 10.003535
v -0.021213 2.000000 10.021214
v -0.005000 2.000000 5.000000
v -0.030000 2.000000 5.000000
v -0.003536 2.200000 10.003535
v -0.005000 2.200000 5.000000
v -0.005000 2.400000 5.000000
v -0.021213 0.000000 -0.021213
v -0.021213 0.400000 -0.021213
v -0.005000 0.400000 5.000000
v -0.005000 0.600000 5.000000
v -0.003536 0.800000 -0.003536
v -0.021213 0.800000 -0.021213
v -0.005000 0.800000 5.000000
v -0.030000 0.800000 5.000000
v -0.003536 1.000000 -0.003536
v -0.021213 1.000000 -0.021213
v -0.003536 1.200000 -0.003536
v -0.021213 1.200000 -0.021213
v -0.030000 1.200000 5.000000
v -0.021213 1.400000 -0.021213
v -0.005000 1.400000 5.000000
v -0.030000 1.400000 5.000000
v -0.003536 1.600000 -0.003536
v -0.030000 1.600000 5.000000
v -0.003536 1.800000 -0.003536
v -0.003536 2.000000 -0.003536
v -0.021213 2.000000 -0.021213
v -0.003536 2.200000 -0.003536
v -0.021213 2.200000 -0.021213
v -0.030000 2.200000 5.000000
v -0.021213 2.400000 -0.021213
v -0.003536 2.400000 -0.003536
v -0.030000 2.400000 5.000000
vn -0.0000 1.0000 -0.0000
vn 0.0010 -0.1061 0.9944
vn -0.0010 -0.1061 0.9944
vn -0.9944 -0.1061 0.0010
vn -0.9944 -0.1061 -0.0010
vn -0.0010 -0.1061 -0.9944
vn 0.0010 -0.1061 -0.9944
vn 0.9944 -0.1061 -0.0010
vn 0.9944 -0.1061 0.0010
s 0
f 33//5 53//5 214//5 34//5
f 55//5 56//5 36//5 35//5
f 53//6 55//6 35//6 214//6
f 37//5 58//5 215//5 38//5
f 56//6 37//6 38//6 36//6
f 60//5 61//5 40//5 39//5
f 58//6 60//6 39//6 215//6
f 63//5 64//5 219//5 218//5
f 61//6 63//6 218//6 40//6
f 66//5 67//5 223//5 222//5
f 64//6 66//6 222//6 219//6
f 70//5 71//5 225//5 224//5
f 67//6 70//6 224//6 223//6
f 41//5 72//5 227//5 42//5
f 71//6 41//6 42//6 225//6
f 43//5 74//5 44//5 230//5
f 72//6 43//6 230//6 227//6
f 45//5 46//5 47//5 232//5
f 74//6 45//6 232//6 44//6
f 48//5 49//5 234//5 233//5
f 46//6 48//6 233//6 47//6
f 50//5 78//5 236//5 235//5
f 49//6 50//6 235//6 234//6
f 51//5 52//5 238//5 239//5
f 78//6 51//6 239//6 236//6
f 80//5 81//5 53//5 33//5
f 83//5 54//5 56//5 55//5
f 81//7 83//7 55//7 53//7
f 85//5 57//5 58//5 37//5
f 54//7 85//7 37//7 56//7
f 59//5 87//5 61//5 60//5
f 57//7 59//7 60//7 58//7
f 90//5 62//5 64//5 63//5
f 87//7 90//7 63//7 61//7
f 65//5 91//5 67//5 66//5
f 62//7 65//7 66//7 64//7
f 68//5 69//5 71//5 70//5
f 91//7 68//7 70//7 67//7
f 93//5 94//5 72//5 41//5
f 69//7 93//7 41//7 71//7
f 73//5 96//5 74//5 43//5
f 94//7 73//7 43//7 72//7
f 75//5 97//5 46//5 45//5
f 96//7 75//7 45//7 74//7
f 99//5 76//5 49//5 48//5
f 97//7 99//7 48//7 46//7
f 77//5 102//5 78//5 50//5
f 76//7 77//7 50//7 49//7
f 79//5 104//5 52//5 51//5
f 102//7 79//7 51//7 78//7
f 80//5 82//5 107//5 81//5
f 83//5 84//5 108//5 54//5
f 81//8 107//8 84//8 83//8
f 85//5 109//5 86//5 57//5
f 54//8 108//8 109//8 85//8
f 59//5 88//5 89//5 87//5
f 57//8 86//8 88//8 59//8
f 90//5 112//5 113//5 62//5
f 87//8 89//8 112//8 90//8
f 65//5 114//5 115//5 91//5
f 62//8 113//8 114//8 65//8
f 68//5 117//5 92//5 69//5
f 91//8 115//8 117//8 68//8
f 93//5 95//5 120//5 94//5
f 69//8 92//8 95//8 93//8
f 73//5 123//5 124//5 96//5
f 94//8 120//8 123//8 73//8
f 75//5 126//5 98//5 97//5
f 96//8 124//8 126//8 75//8
f 99//5 100//5 101//5 76//5
f 97//8 98//8 100//8 99//8
f 77//5 103//5 130//5 102//5
f 76//8 101//8 103//8 77//8
f 79//5 105//5 132//5 104//5
f 102//8 130//8 105//8 79//8
f 106//5 133//5 107//5 82//5
f 136//5 137//5 108//5 84//5
f 133//9 136//9 84//9 107//9
f 139//5 140//5 86//5 109//5
f 137//9 139//9 109//9 108//9
f 110//5 142//5 89//5 88//5
f 140//9 110//9 88//9 86//9
f 144//5 111//5 113//5 112//5
f 142//9 144//9 112//9 89//9
f 146//5 147//5 115//5 114//5
f 111//9 146//9 114//9 113//9
f 116//5 149//5 92//5 117//5
f 147//9 116//9 117//9 115//9
f 118//5 119//5 120//5 95//5
f 149//9 118//9 95//9 92//9
f 121//5 122//5 124//5 123//5
f 119//9 121//9 123//9 120//9
f 125//5 155//5 98//5 126//5
f 122//9 125//9 126//9 124//9
f 158//5 127//5 101//5 100//5
f 155//9 158//9 100//9 98//9
f 128//5 129//5 130//5 103//5
f 127//9 128//9 103//9 101//9
f 163//5 131//5 132//5 105//5
f 129//9 163//9 105//9 130//9
f 106//5 134//5 135//5 133//5
f 136//5 138//5 169//5 137//5
f 133//10 135//10 138//10 136//10
f 139//5 141//5 171//5 140//5
f 137//10 169//10 141//10 139//10
f 110//5 174//5 143//5 142//5
f 140//10 171//10 174//10 110//10
f 144//5 176//5 145//5 111//5
f 142//10 143//10 176//10 144//10
f 146//5 177//5 148//5 147//5
f 111//10 145//10 177//10 146//10
f 116//5 179//5 150//5 149//5
f 147//10 148//10 179//10 116//10
f 118//5 151//5 152//5 119//5
f 149//10 150//10 151//10 118//10
f 121//5 153//5 154//5 122//5
f 119//10 152//10 153//10 121//10
f 125//5 156//5 157//5 155//5
f 122//10 154//10 156//10 125//10
f 158//5 159//5 160//5 127//5
f 155//10 157//10 159//10 158//10
f 128//5 161//5 162//5 129//5
f 127//10 160//10 161//10 128//10
f 163//5 164//5 165//5 131//5
f 129//10 162//10 164//10 163//10
f 166//5 167//5 135//5 134//5
f 168//5 191//5 169//5 138//5
f 167//11 168//11 138//11 135//11
f 194//5 170//5 171//5 141//5
f 191//11 194//11 141//11 169//11
f 172//5 173//5 143//5 174//5
f 170//11 172//11 174//11 171//11
f 175//5 197//5 145//5 176//5
f 173//11 175//11 176//11 143//11
f 198//5 199//5 148//5 177//5
f 197//11 198//11 177//11 145//11
f 202//5 178//5 150//5 179//5
f 199//11 202//11 179//11 148//11
f 180//5 181//5 152//5 151//5
f 178//11 180//11 151//11 150//11
f 182//5 183//5 154//5 153//5
f 181//11 182//11 153//11 152//11
f 184//5 185//5 157//5 156//5
f 183//11 184//11 156//11 154//11
f 207//5 208//5 160//5 159//5
f 185//11 207//11 159//11 157//11
f 211//5 186//5 162//5 161//5
f 208//11 211//11 161//11 160//11
f 188//5 187//5 165//5 164//5
f 186//11 188//11 164//11 162//11
f 166//5 189//5 190//5 167//5
f 168//5 192//5 193//5 191//5
f 167//12 190//12 192//12 168//12
f 194//5 216//5 195//5 170//5
f 191//12 193//12 216//12 194//12
f 172//5 217//5 196//5 173//5
f 170//12 195//12 217//12 172//12
f 175//5 220//5 221//5 197//5
f 173//12 196//12 220//12 175//12
f 198//5 200//5 201//5 199//5
f 197//12 221//12 200//12 198//12
f 202//5 203//5 226//5 178//5
f 199//12 201//12 203//12 202//12
f 180//5 228//5 229//5 181//5
f 178//12 226//12 228//12 180//12
f 182//5 204//5 231//5 183//5
f 181//12 229//12 204//12 182//12
f 184//5 205//5 206//5 185//5
f 183//12 231//12 205//12 184//12
f 207//5 209//5 210//5 208//5
f 185//12 206//12 209//12 207//12
f 211//5 212//5 237//5 186//5
f 208//12 210//12 212//12 211//12
f 188//5 213//5 240//5 187//5
f 186//12 237//12 213//12 188//12
f 34//5 214//5 190//5 189//5
f 35//5 36//5 193//5 192//5
f 214//13 35//13 192//13 190//13
f 38//5 215//5 195//5 216//5
f 36//13 38//13 216//13 193//13
f 39//5 40//5 196//5 217//5
f 215//13 39//13 217//13 195//13
f 218//5 219//5 221//5 220//5
f 40//13 218//13 220//13 196//13
f 222//5 223//5 201//5 200//5
f 219//13 222//13 200//13 221//13
f 224//5 225//5 226//5 203//5
f 223//13 224//13 203//13 201//13
f 42//5 227//5 229//5 228//5
f 225//13 42//13 228//13 226//13
f 230//5 44//5 231//5 204//5
f 227//13 230//13 204//13 229//13
f 232//5 47//5 206//5 205//5
f 44//13 232//13 205//13 231//13
f 233//5 234//5 210//5 209//5
f 47//13 233//13 209//13 206//13
f 235//5 236//5 237//5 212//5
f 234//13 235//13 212//13 210//13
f 239//5 238//5 240//5 213//5
f 236//13 239//13 213//13 237//13
